<?xml version="1.0" encoding="UTF-8"?>
<!-- Generated by Pixelmator Pro 3.6.13 -->
<svg width="300" height="300" viewBox="0 0 300 300" xmlns="http://www.w3.org/2000/svg">
    <path id="2" fill="#000000" fill-rule="evenodd" stroke="none" d="M 211.5 74.800003 L 173.699997 112 L 214.199997 152.199997 L 173.699997 192.100006 L 211.5 229.600006 L 289.799988 152.199997 Z M 42 121.600006 L 73.5 153.100006 L 42 184.899994 L 10.5 153.100006 Z M 98.400002 64.300003 L 55.5 107.199997 L 101.400002 153.399994 L 55.5 199.300003 L 98.400002 242.199997 L 187.199997 153.100006 Z M 42 121.600006 L 73.5 153.100006 L 42 184.899994 L 10.5 153.100006 Z M 98.400002 64.300003 L 55.5 107.199997 L 101.400002 153.399994 L 55.5 199.300003 L 98.400002 242.199997 L 187.199997 153.100006 Z M 42 121.600006 L 73.5 153.100006 L 42 184.899994 L 10.5 153.100006 Z M 98.400002 64.300003 L 55.5 107.199997 L 101.400002 153.399994 L 55.5 199.300003 L 98.400002 242.199997 L 187.199997 153.100006 Z"/>
</svg>
